G04*
G04 #@! TF.GenerationSoftware,Altium Limited,Altium Designer,26.2.0 (7)*
G04*
G04 Layer_Color=16711935*
%FSLAX44Y44*%
%MOMM*%
G71*
G04*
G04 #@! TF.SameCoordinates,6987A10F-7572-4426-8317-57E1FBD65F4B*
G04*
G04*
G04 #@! TF.FilePolarity,Negative*
G04*
G01*
G75*
%ADD45R,1.3900X1.3900*%
%ADD46C,1.3900*%
%ADD47C,1.5200*%
%ADD48C,1.2000*%
%ADD49R,1.2000X1.2000*%
%ADD50R,1.2000X1.2000*%
%ADD51R,1.5200X1.5200*%
%ADD52C,0.7532*%
%ADD53C,1.4732*%
D45*
X1170940Y1078210D02*
D03*
X688340Y692180D02*
D03*
D46*
X1170940Y1058210D02*
D03*
Y1038210D02*
D03*
Y1018210D02*
D03*
Y998210D02*
D03*
Y978210D02*
D03*
Y958210D02*
D03*
Y938210D02*
D03*
Y918210D02*
D03*
Y898210D02*
D03*
Y878210D02*
D03*
Y858210D02*
D03*
Y838210D02*
D03*
Y818210D02*
D03*
Y798210D02*
D03*
Y778210D02*
D03*
Y758210D02*
D03*
Y738210D02*
D03*
Y718210D02*
D03*
Y698210D02*
D03*
X688340Y1072180D02*
D03*
Y1052180D02*
D03*
Y1032180D02*
D03*
Y1012180D02*
D03*
Y992180D02*
D03*
Y972180D02*
D03*
Y952180D02*
D03*
Y932180D02*
D03*
Y912180D02*
D03*
Y892180D02*
D03*
Y872180D02*
D03*
Y852180D02*
D03*
Y832180D02*
D03*
Y812180D02*
D03*
Y792180D02*
D03*
Y772180D02*
D03*
Y752180D02*
D03*
Y732180D02*
D03*
Y712180D02*
D03*
D47*
X1109980Y1037590D02*
D03*
Y1012190D02*
D03*
X1084580Y1037590D02*
D03*
D48*
X969880Y996950D02*
D03*
X970280Y938330D02*
D03*
X1102360Y828440D02*
D03*
X757120Y796290D02*
D03*
X759660Y701040D02*
D03*
X758190Y750570D02*
D03*
X750970Y911860D02*
D03*
D49*
X970280Y913330D02*
D03*
X1102360Y853440D02*
D03*
D50*
X944880Y996950D02*
D03*
X782120Y796290D02*
D03*
X784660Y701040D02*
D03*
X783190Y750570D02*
D03*
X775970Y911860D02*
D03*
D51*
X1084580Y1012190D02*
D03*
D52*
X925623Y1055299D02*
D03*
X1159002Y911352D02*
D03*
X838200Y934720D02*
D03*
X882904Y922020D02*
D03*
X810768Y836168D02*
D03*
X802894Y871728D02*
D03*
X997366Y1014814D02*
D03*
X1026406Y985774D02*
D03*
X912876Y1004570D02*
D03*
X915230Y996950D02*
D03*
X834644Y1007364D02*
D03*
X832612Y1011174D02*
D03*
X818388Y980440D02*
D03*
X814124Y973650D02*
D03*
X810060Y942848D02*
D03*
X803148Y939292D02*
D03*
X858643Y843952D02*
D03*
X788048Y947028D02*
D03*
X1041654Y865886D02*
D03*
X872236Y884428D02*
D03*
X810514Y925348D02*
D03*
X812019Y911265D02*
D03*
X849122Y948944D02*
D03*
X931418Y820674D02*
D03*
X848640Y917702D02*
D03*
X860044Y869696D02*
D03*
X873140Y940704D02*
D03*
X889762Y1060196D02*
D03*
X984250Y1104138D02*
D03*
X890016Y953650D02*
D03*
X1189482Y948690D02*
D03*
X925830Y958596D02*
D03*
X888746Y1002284D02*
D03*
X866648Y840232D02*
D03*
X893064Y1020318D02*
D03*
X879464Y1025790D02*
D03*
X873760Y974598D02*
D03*
X863640Y973328D02*
D03*
X877654Y927214D02*
D03*
X947996Y918650D02*
D03*
X956056Y827024D02*
D03*
X894588Y933704D02*
D03*
X808736Y1038098D02*
D03*
X754634Y1010666D02*
D03*
X837438Y968650D02*
D03*
X911860Y852170D02*
D03*
X951992D02*
D03*
X899300Y1032256D02*
D03*
X864870Y953516D02*
D03*
X877062Y1038352D02*
D03*
X840994Y886714D02*
D03*
X824230Y897890D02*
D03*
X871982Y919480D02*
D03*
X858520Y1043686D02*
D03*
X1154176Y1056894D02*
D03*
X918210Y947674D02*
D03*
X855556Y938192D02*
D03*
X983996Y871728D02*
D03*
X1005332D02*
D03*
X883640Y885754D02*
D03*
D53*
X795020Y1005840D02*
D03*
X783590Y972820D02*
D03*
M02*
