G04*
G04 #@! TF.GenerationSoftware,Altium Limited,Altium Designer,26.2.0 (7)*
G04*
G04 Layer_Color=255*
%FSLAX44Y44*%
%MOMM*%
G71*
G04*
G04 #@! TF.SameCoordinates,6987A10F-7572-4426-8317-57E1FBD65F4B*
G04*
G04*
G04 #@! TF.FilePolarity,Positive*
G04*
G01*
G75*
%ADD15R,0.4500X1.3800*%
%ADD16R,1.5500X1.5000*%
%ADD17R,0.9000X0.7500*%
%ADD18R,1.0587X1.0121*%
%ADD19O,0.2500X1.5500*%
%ADD20O,1.5500X0.2500*%
%ADD21R,0.7500X0.9000*%
%ADD22R,1.4500X1.0000*%
%ADD23R,1.6000X1.5000*%
%ADD24R,1.7062X1.5540*%
G04:AMPARAMS|DCode=25|XSize=1.0043mm|YSize=0.8721mm|CornerRadius=0.4361mm|HoleSize=0mm|Usage=FLASHONLY|Rotation=270.000|XOffset=0mm|YOffset=0mm|HoleType=Round|Shape=RoundedRectangle|*
%AMROUNDEDRECTD25*
21,1,1.0043,0.0000,0,0,270.0*
21,1,0.1322,0.8721,0,0,270.0*
1,1,0.8721,0.0000,-0.0661*
1,1,0.8721,0.0000,0.0661*
1,1,0.8721,0.0000,0.0661*
1,1,0.8721,0.0000,-0.0661*
%
%ADD25ROUNDEDRECTD25*%
%ADD26R,1.6500X1.3000*%
%ADD27R,1.8000X1.9000*%
%ADD28R,1.0000X1.9000*%
%ADD29R,1.4250X1.5500*%
%ADD30R,5.6000X2.1000*%
%ADD31R,0.9500X1.7000*%
G04:AMPARAMS|DCode=32|XSize=1.0043mm|YSize=3.1821mm|CornerRadius=0.4369mm|HoleSize=0mm|Usage=FLASHONLY|Rotation=270.000|XOffset=0mm|YOffset=0mm|HoleType=Round|Shape=RoundedRectangle|*
%AMROUNDEDRECTD32*
21,1,1.0043,2.3084,0,0,270.0*
21,1,0.1306,3.1821,0,0,270.0*
1,1,0.8737,-1.1542,-0.0653*
1,1,0.8737,-1.1542,0.0653*
1,1,0.8737,1.1542,0.0653*
1,1,0.8737,1.1542,-0.0653*
%
%ADD32ROUNDEDRECTD32*%
%ADD33R,0.8721X1.0043*%
%ADD34R,0.6637X0.8621*%
%ADD35R,1.1000X1.9000*%
%ADD45R,1.3900X1.3900*%
%ADD46C,1.3900*%
%ADD47C,1.5200*%
%ADD48C,1.2000*%
%ADD49R,1.2000X1.2000*%
%ADD50R,1.2000X1.2000*%
%ADD51R,1.5200X1.5200*%
D15*
X1015283Y1092206D02*
D03*
X987783D02*
D03*
X994410Y1092200D02*
D03*
X1001283Y1092206D02*
D03*
X1008283D02*
D03*
D16*
X1042670Y824010D02*
D03*
Y842010D02*
D03*
D17*
X1099820Y789590D02*
D03*
X979170Y803560D02*
D03*
X763270Y1002730D02*
D03*
X1099820Y777590D02*
D03*
X979170Y791560D02*
D03*
X763270Y1014730D02*
D03*
D18*
X840986Y1021080D02*
D03*
X1026406Y955040D02*
D03*
X876177Y858520D02*
D03*
X858643D02*
D03*
X1043940Y955040D02*
D03*
X858520Y1021080D02*
D03*
D19*
X843640Y986400D02*
D03*
X888640Y905900D02*
D03*
X838640Y986400D02*
D03*
X893640Y905900D02*
D03*
X873640D02*
D03*
X848640Y986400D02*
D03*
X853640D02*
D03*
X858640D02*
D03*
X863640D02*
D03*
X868640D02*
D03*
X873640D02*
D03*
X878640D02*
D03*
X883640D02*
D03*
X888640D02*
D03*
X893640D02*
D03*
X883640Y905900D02*
D03*
X878640D02*
D03*
X868640D02*
D03*
X863640D02*
D03*
X858640D02*
D03*
X853640D02*
D03*
X848640D02*
D03*
X843640D02*
D03*
X838640D02*
D03*
D20*
X906390Y968650D02*
D03*
X825890Y938650D02*
D03*
X906390Y973650D02*
D03*
X825890D02*
D03*
Y933650D02*
D03*
Y943650D02*
D03*
X906390Y963650D02*
D03*
Y958650D02*
D03*
Y953650D02*
D03*
Y948650D02*
D03*
Y943650D02*
D03*
Y938650D02*
D03*
Y933650D02*
D03*
Y928650D02*
D03*
Y923650D02*
D03*
Y918650D02*
D03*
X825890D02*
D03*
Y923650D02*
D03*
Y928650D02*
D03*
Y948650D02*
D03*
Y953650D02*
D03*
Y958650D02*
D03*
Y963650D02*
D03*
Y968650D02*
D03*
D21*
X758190Y958850D02*
D03*
X770190D02*
D03*
D22*
X795370Y836050D02*
D03*
Y853050D02*
D03*
X743870D02*
D03*
Y836050D02*
D03*
D23*
X1108710Y948910D02*
D03*
Y912910D02*
D03*
D24*
X971550Y850298D02*
D03*
Y871822D02*
D03*
D25*
X872490Y783520D02*
D03*
X849590D02*
D03*
D26*
X966783Y1067706D02*
D03*
X1035783Y1068206D02*
D03*
D27*
X989783Y1067706D02*
D03*
D28*
X1017783Y1068206D02*
D03*
D29*
X1028283Y1092206D02*
D03*
X974783Y1092706D02*
D03*
D30*
X996950Y722630D02*
D03*
X1091950D02*
D03*
D31*
X883950Y820420D02*
D03*
X855950D02*
D03*
D32*
X872490Y717620D02*
D03*
D33*
X895390Y783520D02*
D03*
D34*
X1047694Y901700D02*
D03*
X1035106D02*
D03*
D35*
X808790Y1051560D02*
D03*
X783790D02*
D03*
D45*
X1170940Y1078210D02*
D03*
X688340Y692180D02*
D03*
D46*
X1170940Y1058210D02*
D03*
Y1038210D02*
D03*
Y1018210D02*
D03*
Y998210D02*
D03*
Y978210D02*
D03*
Y958210D02*
D03*
Y938210D02*
D03*
Y918210D02*
D03*
Y898210D02*
D03*
Y878210D02*
D03*
Y858210D02*
D03*
Y838210D02*
D03*
Y818210D02*
D03*
Y798210D02*
D03*
Y778210D02*
D03*
Y758210D02*
D03*
Y738210D02*
D03*
Y718210D02*
D03*
Y698210D02*
D03*
X688340Y1072180D02*
D03*
Y1052180D02*
D03*
Y1032180D02*
D03*
Y1012180D02*
D03*
Y992180D02*
D03*
Y972180D02*
D03*
Y952180D02*
D03*
Y932180D02*
D03*
Y912180D02*
D03*
Y892180D02*
D03*
Y872180D02*
D03*
Y852180D02*
D03*
Y832180D02*
D03*
Y812180D02*
D03*
Y792180D02*
D03*
Y772180D02*
D03*
Y752180D02*
D03*
Y732180D02*
D03*
Y712180D02*
D03*
D47*
X1109980Y1037590D02*
D03*
Y1012190D02*
D03*
X1084580Y1037590D02*
D03*
D48*
X969880Y996950D02*
D03*
X970280Y938330D02*
D03*
X1102360Y828440D02*
D03*
X757120Y796290D02*
D03*
X759660Y701040D02*
D03*
X758190Y750570D02*
D03*
X750970Y911860D02*
D03*
D49*
X970280Y913330D02*
D03*
X1102360Y853440D02*
D03*
D50*
X944880Y996950D02*
D03*
X782120Y796290D02*
D03*
X784660Y701040D02*
D03*
X783190Y750570D02*
D03*
X775970Y911860D02*
D03*
D51*
X1084580Y1012190D02*
D03*
M02*
