G04*
G04 #@! TF.GenerationSoftware,Altium Limited,Altium Designer,26.2.0 (7)*
G04*
G04 Layer_Physical_Order=2*
G04 Layer_Color=16711680*
%FSLAX44Y44*%
%MOMM*%
G71*
G04*
G04 #@! TF.SameCoordinates,6987A10F-7572-4426-8317-57E1FBD65F4B*
G04*
G04*
G04 #@! TF.FilePolarity,Positive*
G04*
G01*
G75*
%ADD12C,0.2000*%
%ADD45R,1.3900X1.3900*%
%ADD46C,1.3900*%
%ADD47C,1.5200*%
%ADD48C,1.2000*%
%ADD49R,1.2000X1.2000*%
%ADD50R,1.2000X1.2000*%
%ADD51R,1.5200X1.5200*%
%ADD54C,0.5500*%
%ADD55C,1.2700*%
D12*
X1010412Y911352D02*
X1159002D01*
X963368Y931418D02*
X970280Y938330D01*
X914146Y931418D02*
X963368D01*
X997458Y924306D02*
X1010412Y911352D01*
X908741Y1072180D02*
X925623Y1055299D01*
X688340Y1072180D02*
X908741D01*
X885190Y924306D02*
X907034D01*
X914146Y931418D01*
X907034Y924306D02*
X997458D01*
X882904Y922020D02*
X904748D01*
X907034Y924306D01*
X882904Y922020D02*
X885190Y924306D01*
X838200Y917965D02*
Y934720D01*
Y917965D02*
X847230Y908935D01*
X848106Y882650D01*
X847230Y881774D02*
Y908935D01*
Y881774D02*
X848106Y882650D01*
X847230Y872630D02*
Y881774D01*
X837184Y871728D02*
X847230Y881774D01*
X802894Y871728D02*
X837184D01*
X810768Y836168D02*
X847230Y872630D01*
X796998Y836168D02*
X810768D01*
X757120Y796290D02*
X796998Y836168D01*
X801830Y718210D02*
X1170940D01*
X803148Y939292D02*
X810060Y946204D01*
X1083564Y985774D02*
X1109980Y1012190D01*
X1026406Y985774D02*
X1083564D01*
X842094Y1014814D02*
X997366D01*
X838454Y1011174D02*
X906272D01*
X838454D02*
X842094Y1014814D01*
X906272Y1011174D02*
X912876Y1004570D01*
X915230Y996950D02*
X944880D01*
X832612Y1011174D02*
X838454D01*
X834644Y1007364D02*
X838454Y1011174D01*
X818388Y954532D02*
Y980440D01*
X810060Y946204D02*
X818388Y954532D01*
X810060Y969586D02*
X814124Y973650D01*
X810060Y946204D02*
Y969586D01*
Y942848D02*
Y946204D01*
X784660Y701040D02*
X801830Y718210D01*
X948129Y738210D02*
X1170940D01*
X858643Y827696D02*
X948129Y738210D01*
X858643Y827696D02*
Y843952D01*
X775970Y934950D02*
X788048Y947028D01*
X775970Y911860D02*
Y934950D01*
X1000740Y758210D02*
X1170940D01*
X977138Y865886D02*
X1041654D01*
X950722Y808228D02*
Y839470D01*
X872236Y881209D02*
Y884428D01*
X950722Y839470D02*
X977138Y865886D01*
X950722Y808228D02*
X1000740Y758210D01*
X872236Y881209D02*
X887559Y865886D01*
X977138D01*
X1017121Y878210D02*
X1170940D01*
X1159886Y969264D02*
X1170940Y958210D01*
X879464Y1025790D02*
X1163360D01*
X1170940Y1018210D01*
X898840Y898210D02*
X1170940D01*
X1022096Y918210D02*
X1170940D01*
X1125362Y843788D02*
X1170940Y798210D01*
X805434Y1016254D02*
X820928D01*
X795020Y1005840D02*
X805434Y1016254D01*
X881634Y995172D02*
X888746Y1002284D01*
X764804Y985276D02*
X774700Y995172D01*
X881634D01*
X767895Y972820D02*
X783590D01*
X733915Y938840D02*
X767895Y972820D01*
X715000Y938840D02*
X733915D01*
X688340Y912180D02*
X715000Y938840D01*
X704850Y902208D02*
X759206Y956564D01*
X789686D01*
X795274Y950976D01*
X774698Y892180D02*
X802616Y920098D01*
X815764Y922528D02*
Y946958D01*
X822624Y920414D02*
Y948868D01*
X832098Y958342D02*
X856996D01*
X739912Y852180D02*
X804330Y916598D01*
X822624Y948868D02*
X832098Y958342D01*
X828548Y910336D02*
Y946150D01*
X830704Y961898D02*
X858520D01*
X815764Y946958D02*
X830704Y961898D01*
X837184Y954786D02*
X853072D01*
X828548Y946150D02*
X837184Y954786D01*
X858266Y976122D02*
Y987552D01*
X795274Y938276D02*
X808202Y925348D01*
X802616Y920098D02*
X813334D01*
X849122Y928624D02*
Y948944D01*
X804330Y916598D02*
X818808D01*
X742510Y841756D02*
X812019Y911265D01*
X808202Y925348D02*
X810514D01*
X813334Y920098D02*
X815764Y922528D01*
X770636Y985774D02*
X833374D01*
X688340Y992180D02*
X762818D01*
X727202Y942340D02*
X770636Y985774D01*
X676304Y942340D02*
X727202D01*
X688340Y952180D02*
X721436Y985276D01*
X762818Y992180D02*
X808736Y1038098D01*
X721436Y985276D02*
X764804D01*
X675132Y943512D02*
Y1006348D01*
Y943512D02*
X676304Y942340D01*
X885952Y987552D02*
X890016Y991616D01*
X820928Y1008634D02*
Y1016254D01*
X860806Y966724D02*
X864616Y962914D01*
X858266Y969264D02*
X860806Y966724D01*
X866648Y962914D02*
X880752D01*
X864616D02*
X866648D01*
X858266Y969264D02*
Y976122D01*
X849122Y928624D02*
X858266Y919480D01*
Y882396D02*
Y919480D01*
Y882396D02*
X919988Y820674D01*
X931418D01*
X688340Y732180D02*
Y739648D01*
X685292Y742696D02*
X688340Y739648D01*
X682752Y742696D02*
X685292D01*
X668389Y757059D02*
X682752Y742696D01*
X668389Y757059D02*
Y827393D01*
X682752Y841756D01*
X742510D01*
X688340Y792180D02*
X698962Y781558D01*
X804672D01*
X831731Y808617D01*
Y839072D01*
X853862Y861202D01*
Y912480D01*
X848640Y917702D02*
X853862Y912480D01*
X860044Y853440D02*
Y869696D01*
X837137Y830533D02*
X860044Y853440D01*
X837137Y767287D02*
Y830533D01*
X832358Y762508D02*
X837137Y767287D01*
X683768Y762508D02*
X832358D01*
X678688Y767588D02*
X683768Y762508D01*
X678688Y767588D02*
Y775462D01*
X675390Y778760D02*
X678688Y775462D01*
X675390Y778760D02*
Y799230D01*
X688340Y812180D01*
X870712Y938276D02*
X873140Y940704D01*
X866902Y938276D02*
X870712D01*
X859536Y945642D02*
X866902Y938276D01*
X859536Y945642D02*
Y955802D01*
X856996Y958342D02*
X859536Y955802D01*
X818808Y916598D02*
X822624Y920414D01*
X688340Y852180D02*
X739912D01*
X888238Y1061720D02*
X889762Y1060196D01*
X678942Y1061720D02*
X888238D01*
X668020Y1050798D02*
X678942Y1061720D01*
X668020Y875792D02*
Y1050798D01*
Y875792D02*
X671632Y872180D01*
X688340D01*
X820928Y1008634D02*
X829056Y1000506D01*
X877316Y1007618D02*
X892048D01*
X894080Y995680D02*
Y1005586D01*
X869696Y987552D02*
X885952D01*
X858266Y976122D02*
X869696Y987552D01*
X880752Y962914D02*
X890016Y953650D01*
X984250Y1091184D02*
Y1104138D01*
X940816Y1047750D02*
X984250Y1091184D01*
X874522Y1047750D02*
X940816D01*
X870204Y1052068D02*
X874522Y1047750D01*
X856742Y1052068D02*
X870204D01*
X820928Y1016254D02*
X856742Y1052068D01*
X829056Y1000506D02*
X870204D01*
X877316Y1007618D01*
X892048D02*
X894080Y1005586D01*
X890016Y991616D02*
X894080Y995680D01*
X862330Y991616D02*
X890016D01*
X858266Y987552D02*
X862330Y991616D01*
X860806Y966724D02*
X862838D01*
X866648Y962914D01*
X925830Y958596D02*
X1068832D01*
X1078738Y948690D02*
X1189482D01*
X1068832Y958596D02*
X1078738Y948690D01*
X1170940Y1078210D02*
X1198372Y1050778D01*
Y768096D02*
Y1050778D01*
X1178560Y748284D02*
X1198372Y768096D01*
X958596Y748284D02*
X1178560D01*
X866648Y840232D02*
X958596Y748284D01*
X1170940Y1038210D02*
X1180592Y1028558D01*
Y1010666D02*
Y1028558D01*
X1178560Y1008634D02*
X1180592Y1010666D01*
X1131570Y1008634D02*
X1178560D01*
X1117914Y1022290D02*
X1131570Y1008634D01*
X895036Y1022290D02*
X1117914D01*
X893064Y1020318D02*
X895036Y1022290D01*
X1147328Y974598D02*
X1170940Y998210D01*
X873760Y974598D02*
X1147328D01*
X863640Y973328D02*
X867704Y969264D01*
X1159886D01*
X877654Y919396D02*
Y927214D01*
Y919396D02*
X898840Y898210D01*
X947996Y918650D02*
X961898Y904748D01*
X1163089D01*
X1166645Y908304D01*
X1174496D01*
X1183890Y898910D01*
Y871160D02*
Y898910D01*
X1170940Y858210D02*
X1183890Y871160D01*
X956056Y827024D02*
X1014984Y768096D01*
X1176528D01*
X1180592Y772160D01*
Y828558D01*
X1170940Y838210D02*
X1180592Y828558D01*
X1083564Y843788D02*
X1125362D01*
X1055116Y872236D02*
X1083564Y843788D01*
X1015408Y872236D02*
X1055116D01*
X1010666Y876978D02*
X1015408Y872236D01*
X882233Y876978D02*
X1010666D01*
X878390Y880821D02*
X882233Y876978D01*
X878390Y880821D02*
Y899610D01*
X863346Y914654D02*
X878390Y899610D01*
X863346Y914654D02*
Y927354D01*
X869696Y933704D01*
X894588D01*
X745744Y1001776D02*
X754634Y1010666D01*
X682752Y1001776D02*
X745744D01*
X678688Y997712D02*
X682752Y1001776D01*
X678688Y981832D02*
Y997712D01*
Y981832D02*
X688340Y972180D01*
X837438Y968650D02*
Y981710D01*
X833374Y985774D02*
X837438Y981710D01*
X675132Y1006348D02*
X680964Y1012180D01*
X688340D01*
X911860Y852170D02*
X951992D01*
X899300Y1032256D02*
X987806D01*
X993140Y1037590D01*
X1084580D01*
X993394Y946912D02*
X1022096Y918210D01*
X930656Y946912D02*
X993394D01*
X924814Y941070D02*
X930656Y946912D01*
X884174Y941070D02*
X924814D01*
X871728Y953516D02*
X884174Y941070D01*
X864870Y953516D02*
X871728D01*
X877062Y1038352D02*
X988822D01*
X998220Y1047750D01*
X1176782D01*
X1184148Y1040384D01*
Y991418D02*
Y1040384D01*
X1170940Y978210D02*
X1184148Y991418D01*
X678890Y781631D02*
X688340Y772180D01*
X678890Y781631D02*
Y796095D01*
X684673Y801878D01*
X723128D01*
X807964Y886714D01*
X840994D01*
X674392Y766128D02*
X688340Y752180D01*
X674392Y766128D02*
Y770926D01*
X671889Y773428D02*
X674392Y770926D01*
X671889Y773428D02*
Y809864D01*
X683716Y821690D01*
X737931D01*
X814131Y897890D01*
X824230D01*
X871982Y919480D02*
X903732Y887730D01*
X1176580D01*
X1180390Y883920D01*
Y873760D02*
Y883920D01*
X1175310Y868680D02*
X1180390Y873760D01*
X1166368Y868680D02*
X1175310D01*
X1161288Y863600D02*
X1166368Y868680D01*
X1161288Y853440D02*
Y863600D01*
Y853440D02*
X1166114Y848614D01*
X1179322D01*
X1194732Y864024D01*
Y1046056D01*
X1182578Y1058210D02*
X1194732Y1046056D01*
X1170940Y1058210D02*
X1182578D01*
X858520Y1043686D02*
X961504D01*
X974712Y1056894D01*
X1154176D01*
X795274Y938276D02*
Y950976D01*
X682752Y902208D02*
X704850D01*
X678688Y898144D02*
X682752Y902208D01*
X678688Y885698D02*
Y898144D01*
Y885698D02*
X682752Y881634D01*
X694944D01*
X697992Y878586D01*
Y865632D02*
Y878586D01*
X694944Y862584D02*
X697992Y865632D01*
X673862Y862584D02*
X694944D01*
X664718Y853440D02*
X673862Y862584D01*
X664718Y715802D02*
Y853440D01*
Y715802D02*
X688340Y692180D01*
Y892180D02*
X774698D01*
X858520Y961898D02*
X861568Y958850D01*
X872341D01*
X883517Y947674D01*
X918210D01*
X688340Y832180D02*
X739642D01*
X811728Y904265D01*
X822477D01*
X828548Y910336D01*
X853072Y954786D02*
X855556Y952302D01*
Y938192D02*
Y952302D01*
X983996Y871728D02*
X1005332D01*
X1014852Y880478D02*
X1017121Y878210D01*
X888916Y880478D02*
X1014852D01*
X883640Y885754D02*
X888916Y880478D01*
D45*
X1170940Y1078210D02*
D03*
X688340Y692180D02*
D03*
D46*
X1170940Y1058210D02*
D03*
Y1038210D02*
D03*
Y1018210D02*
D03*
Y998210D02*
D03*
Y978210D02*
D03*
Y958210D02*
D03*
Y938210D02*
D03*
Y918210D02*
D03*
Y898210D02*
D03*
Y878210D02*
D03*
Y858210D02*
D03*
Y838210D02*
D03*
Y818210D02*
D03*
Y798210D02*
D03*
Y778210D02*
D03*
Y758210D02*
D03*
Y738210D02*
D03*
Y718210D02*
D03*
Y698210D02*
D03*
X688340Y1072180D02*
D03*
Y1052180D02*
D03*
Y1032180D02*
D03*
Y1012180D02*
D03*
Y992180D02*
D03*
Y972180D02*
D03*
Y952180D02*
D03*
Y932180D02*
D03*
Y912180D02*
D03*
Y892180D02*
D03*
Y872180D02*
D03*
Y852180D02*
D03*
Y832180D02*
D03*
Y812180D02*
D03*
Y792180D02*
D03*
Y772180D02*
D03*
Y752180D02*
D03*
Y732180D02*
D03*
Y712180D02*
D03*
D47*
X1109980Y1037590D02*
D03*
Y1012190D02*
D03*
X1084580Y1037590D02*
D03*
D48*
X969880Y996950D02*
D03*
X970280Y938330D02*
D03*
X1102360Y828440D02*
D03*
X757120Y796290D02*
D03*
X759660Y701040D02*
D03*
X758190Y750570D02*
D03*
X750970Y911860D02*
D03*
D49*
X970280Y913330D02*
D03*
X1102360Y853440D02*
D03*
D50*
X944880Y996950D02*
D03*
X782120Y796290D02*
D03*
X784660Y701040D02*
D03*
X783190Y750570D02*
D03*
X775970Y911860D02*
D03*
D51*
X1084580Y1012190D02*
D03*
D54*
X925623Y1055299D02*
D03*
X1159002Y911352D02*
D03*
X838200Y934720D02*
D03*
X882904Y922020D02*
D03*
X810768Y836168D02*
D03*
X802894Y871728D02*
D03*
X997366Y1014814D02*
D03*
X1026406Y985774D02*
D03*
X912876Y1004570D02*
D03*
X915230Y996950D02*
D03*
X834644Y1007364D02*
D03*
X832612Y1011174D02*
D03*
X818388Y980440D02*
D03*
X814124Y973650D02*
D03*
X810060Y942848D02*
D03*
X803148Y939292D02*
D03*
X858643Y843952D02*
D03*
X788048Y947028D02*
D03*
X1041654Y865886D02*
D03*
X872236Y884428D02*
D03*
X810514Y925348D02*
D03*
X812019Y911265D02*
D03*
X849122Y948944D02*
D03*
X931418Y820674D02*
D03*
X848640Y917702D02*
D03*
X860044Y869696D02*
D03*
X873140Y940704D02*
D03*
X889762Y1060196D02*
D03*
X984250Y1104138D02*
D03*
X890016Y953650D02*
D03*
X1189482Y948690D02*
D03*
X925830Y958596D02*
D03*
X888746Y1002284D02*
D03*
X866648Y840232D02*
D03*
X893064Y1020318D02*
D03*
X879464Y1025790D02*
D03*
X873760Y974598D02*
D03*
X863640Y973328D02*
D03*
X877654Y927214D02*
D03*
X947996Y918650D02*
D03*
X956056Y827024D02*
D03*
X894588Y933704D02*
D03*
X808736Y1038098D02*
D03*
X754634Y1010666D02*
D03*
X837438Y968650D02*
D03*
X911860Y852170D02*
D03*
X951992D02*
D03*
X899300Y1032256D02*
D03*
X864870Y953516D02*
D03*
X877062Y1038352D02*
D03*
X840994Y886714D02*
D03*
X824230Y897890D02*
D03*
X871982Y919480D02*
D03*
X858520Y1043686D02*
D03*
X1154176Y1056894D02*
D03*
X918210Y947674D02*
D03*
X855556Y938192D02*
D03*
X983996Y871728D02*
D03*
X1005332D02*
D03*
X883640Y885754D02*
D03*
D55*
X795020Y1005840D02*
D03*
X783590Y972820D02*
D03*
M02*
