G04*
G04 #@! TF.GenerationSoftware,Altium Limited,Altium Designer,26.2.0 (7)*
G04*
G04 Layer_Physical_Order=1*
G04 Layer_Color=255*
%FSLAX44Y44*%
%MOMM*%
G71*
G04*
G04 #@! TF.SameCoordinates,6987A10F-7572-4426-8317-57E1FBD65F4B*
G04*
G04*
G04 #@! TF.FilePolarity,Positive*
G04*
G01*
G75*
%ADD12C,0.2000*%
%ADD15R,0.4500X1.3800*%
%ADD16R,1.5500X1.5000*%
%ADD17R,0.9000X0.7500*%
%ADD18R,1.0587X1.0121*%
%ADD19O,0.2500X1.5500*%
%ADD20O,1.5500X0.2500*%
%ADD21R,0.7500X0.9000*%
%ADD22R,1.4500X1.0000*%
%ADD23R,1.6000X1.5000*%
%ADD24R,1.7062X1.5540*%
G04:AMPARAMS|DCode=25|XSize=1.0043mm|YSize=0.8721mm|CornerRadius=0.4361mm|HoleSize=0mm|Usage=FLASHONLY|Rotation=270.000|XOffset=0mm|YOffset=0mm|HoleType=Round|Shape=RoundedRectangle|*
%AMROUNDEDRECTD25*
21,1,1.0043,0.0000,0,0,270.0*
21,1,0.1322,0.8721,0,0,270.0*
1,1,0.8721,0.0000,-0.0661*
1,1,0.8721,0.0000,0.0661*
1,1,0.8721,0.0000,0.0661*
1,1,0.8721,0.0000,-0.0661*
%
%ADD25ROUNDEDRECTD25*%
%ADD26R,1.6500X1.3000*%
%ADD27R,1.8000X1.9000*%
%ADD28R,1.0000X1.9000*%
%ADD29R,1.4250X1.5500*%
%ADD30R,5.6000X2.1000*%
%ADD31R,0.9500X1.7000*%
G04:AMPARAMS|DCode=32|XSize=1.0043mm|YSize=3.1821mm|CornerRadius=0.4369mm|HoleSize=0mm|Usage=FLASHONLY|Rotation=270.000|XOffset=0mm|YOffset=0mm|HoleType=Round|Shape=RoundedRectangle|*
%AMROUNDEDRECTD32*
21,1,1.0043,2.3084,0,0,270.0*
21,1,0.1306,3.1821,0,0,270.0*
1,1,0.8737,-1.1542,-0.0653*
1,1,0.8737,-1.1542,0.0653*
1,1,0.8737,1.1542,0.0653*
1,1,0.8737,1.1542,-0.0653*
%
%ADD32ROUNDEDRECTD32*%
%ADD33R,0.8721X1.0043*%
%ADD34R,0.6637X0.8621*%
%ADD35R,1.1000X1.9000*%
%ADD45R,1.3900X1.3900*%
%ADD46C,1.3900*%
%ADD47C,1.5200*%
%ADD48C,1.2000*%
%ADD49R,1.2000X1.2000*%
%ADD50R,1.2000X1.2000*%
%ADD51R,1.5200X1.5200*%
%ADD54C,0.5500*%
%ADD55C,1.2700*%
D12*
X747776Y964810D02*
X793892Y918694D01*
X843640Y1009058D02*
Y1057550D01*
X1127252Y741898D02*
X1170940Y698210D01*
X1174750Y1068070D02*
X1184148Y1058672D01*
X1124966Y1051306D02*
X1151128Y1025144D01*
X1122934Y1016956D02*
Y1024636D01*
X1109980Y1037590D02*
X1122934Y1024636D01*
X1082040Y1081786D02*
X1095756Y1068070D01*
X1174750D01*
X1018032Y1081786D02*
X1082040D01*
X1077722Y1051306D02*
X1124966D01*
X1055925Y1029509D02*
X1077722Y1051306D01*
X1122934Y1024636D02*
X1142238Y1005332D01*
X1117600Y1022290D02*
X1122934Y1016956D01*
X1105408Y1022290D02*
X1117600D01*
X1122934Y1016956D02*
X1137920Y1001970D01*
X1099880Y999744D02*
Y1016762D01*
X1105408Y1022290D01*
X1067622Y993200D02*
X1093336D01*
X1099880Y999744D01*
X1036066Y961644D02*
X1067622Y993200D01*
X1015283Y1084535D02*
X1018032Y1081786D01*
X1015283Y1084535D02*
Y1092206D01*
X934720Y1029509D02*
X1055925D01*
X925623Y1020412D02*
Y1055299D01*
Y1020412D02*
X934720Y1029509D01*
X925623Y975407D02*
Y1020412D01*
X1036066Y948944D02*
Y961644D01*
X1019918Y946912D02*
X1034034D01*
X969880Y967632D02*
X970280Y967232D01*
X1034034Y946912D02*
X1036066Y948944D01*
X970280Y938330D02*
Y967232D01*
X969880Y967632D02*
Y996950D01*
X918866Y968650D02*
X925623Y975407D01*
X969880Y996950D02*
X1019918Y946912D01*
X1151128Y919226D02*
X1159002Y911352D01*
X1151128Y919226D02*
Y1025144D01*
X1184148Y753872D02*
Y1058672D01*
X1142238Y760222D02*
Y1005332D01*
X1102360Y828440D02*
X1122934Y849014D01*
Y1016956D01*
X1137920Y756412D02*
Y1001970D01*
X1099820Y803560D02*
X1113536D01*
X1146048Y748284D02*
X1154176D01*
X1178560D01*
X1142238Y760222D02*
X1154176Y748284D01*
X1178560D02*
X1184148Y753872D01*
X1137920Y756412D02*
X1146048Y748284D01*
X1113536Y803560D02*
X1127252Y789844D01*
Y741898D02*
Y789844D01*
X1089152Y824010D02*
X1099820Y813342D01*
X1042670Y824010D02*
X1089152D01*
X1102360Y810260D02*
Y828440D01*
X1042670Y812800D02*
Y824010D01*
X1099820Y807720D02*
X1102360Y810260D01*
X1099820Y803560D02*
Y807720D01*
Y813342D01*
Y789590D02*
Y803560D01*
X1033430D02*
X1042670Y812800D01*
X979170Y803560D02*
X1033430D01*
X1099820D01*
X840986Y1060204D02*
X843640Y1057550D01*
X840986Y1011712D02*
Y1021080D01*
Y1011712D02*
X843640Y1009058D01*
X829056Y1072134D02*
X840986Y1060204D01*
X755904Y1072134D02*
X829056D01*
X840986Y1021080D02*
Y1060204D01*
X906390Y968650D02*
X918866D01*
X843640Y986400D02*
Y1009058D01*
X825890Y938650D02*
X834270D01*
X838200Y934720D01*
X747776Y1012744D02*
X749300Y1011220D01*
X747776Y1008126D02*
X749300Y1006602D01*
X747776Y1008126D02*
Y1012744D01*
X749300Y1006602D02*
Y1011220D01*
X747776Y964810D02*
Y1008126D01*
Y1064006D02*
X755904Y1072134D01*
X747776Y1012744D02*
Y1064006D01*
X688340Y1072180D02*
X747776Y1012744D01*
X758190Y980694D02*
X763270Y985774D01*
Y1002730D01*
X758190Y958850D02*
Y980694D01*
X753172Y1002730D02*
X763270D01*
X749300Y1006602D02*
X753172Y1002730D01*
X749300Y989584D02*
X758190Y980694D01*
X749300Y989584D02*
Y1006602D01*
X888640Y905900D02*
Y916284D01*
X882904Y922020D02*
X888640Y916284D01*
X793892Y880730D02*
X802894Y871728D01*
X810650Y836050D02*
X810768Y836168D01*
X795370Y836050D02*
X810650D01*
X793892Y880730D02*
Y918694D01*
X758190Y750570D02*
Y772668D01*
Y726386D02*
Y750570D01*
X757120Y773738D02*
X758190Y772668D01*
X759660Y701040D02*
Y724916D01*
X758190Y726386D02*
X759660Y724916D01*
X757120Y773738D02*
Y796290D01*
X832612Y994664D02*
Y1011174D01*
X971550Y842010D02*
X1042670D01*
X912876Y973650D02*
Y994596D01*
Y1004570D01*
X1109980Y980948D02*
Y1012190D01*
X1026406Y955040D02*
Y985774D01*
X997366Y1014814D02*
X1026406Y985774D01*
X1108710Y979678D02*
X1109980Y980948D01*
X1108710Y948910D02*
Y979678D01*
Y936244D02*
X1119378Y925576D01*
X1108710Y936244D02*
Y948910D01*
X956310Y927300D02*
X970280Y913330D01*
X989584Y894026D01*
X912876Y994596D02*
X915230Y996950D01*
X838640Y986400D02*
Y1003368D01*
X944880Y996950D02*
X956310Y985520D01*
X906390Y973650D02*
X912876D01*
X956310Y927300D02*
Y985520D01*
X838640Y977646D02*
Y986400D01*
X1119378Y870458D02*
Y925576D01*
X1102360Y853440D02*
X1119378Y870458D01*
X989584Y858350D02*
Y894026D01*
X981533Y850298D02*
X989584Y858350D01*
X893640Y866208D02*
Y905900D01*
X876177Y858520D02*
X885952D01*
X893640Y855726D02*
Y866208D01*
X885952Y858520D02*
X893640Y866208D01*
X1090930Y842010D02*
X1102360Y853440D01*
X1042670Y842010D02*
X1090930D01*
X971550Y850298D02*
X981533D01*
X971550Y842010D02*
Y850298D01*
X876177Y838263D02*
X893640Y855726D01*
X876177Y835469D02*
Y838263D01*
Y858520D01*
X872490Y831782D02*
X876177Y835469D01*
X872490Y783520D02*
Y831782D01*
X869510Y831596D02*
X876177Y838263D01*
X846074Y831596D02*
X848614D01*
X843280Y826262D02*
X848614Y831596D01*
X840740Y826262D02*
X846074Y831596D01*
X863346D02*
X869510D01*
X863346D02*
X863600Y779980D01*
X870458Y774192D02*
X872490Y776224D01*
Y783520D01*
X848614Y831596D02*
X863346D01*
X840740Y826262D02*
X843280D01*
X857812Y774192D02*
X870458D01*
X857812D02*
X863600Y779980D01*
X834644Y1007364D02*
X838640Y1003368D01*
X818388Y980440D02*
X832612Y994664D01*
X834644Y973650D02*
X838640Y977646D01*
X825890Y973650D02*
X834644D01*
X818130Y933650D02*
X825890D01*
X814124Y973650D02*
X825890D01*
X810060Y941720D02*
X818130Y933650D01*
X808736D02*
X818130D01*
X739648Y965318D02*
X781422Y923544D01*
X688340Y1052180D02*
X723392Y1017128D01*
X739648Y965318D02*
Y1000872D01*
X723392Y1017128D02*
X739648Y1000872D01*
X810060Y941720D02*
Y942848D01*
X803148Y928062D02*
X808736Y933650D01*
X803148Y928062D02*
Y939292D01*
X731520Y923544D02*
X781422D01*
X784470Y920496D01*
X723392Y915416D02*
X731520Y923544D01*
X803148Y889254D02*
Y928062D01*
Y889254D02*
X808228Y884174D01*
X790392Y872546D02*
X796544Y866394D01*
X808228D02*
Y884174D01*
X796544Y866394D02*
X808228D01*
X784470Y909456D02*
X790392Y903534D01*
X784470Y909456D02*
Y920496D01*
X774274Y826262D02*
X840740D01*
X790392Y872546D02*
Y903534D01*
X804218Y774192D02*
X857812D01*
X782120Y773738D02*
X783190Y750570D01*
X784660Y701040D02*
X857812Y774192D01*
X782120Y796290D02*
X804218Y774192D01*
X723392Y830072D02*
Y915416D01*
X774192Y826262D02*
X774274D01*
X723392Y915416D02*
Y1017128D01*
X748620Y800608D02*
X774274Y826262D01*
X748620Y800690D02*
X774192Y826262D01*
X715264Y821944D02*
X723392Y830072D01*
X682752Y821944D02*
X715264D01*
X678688Y817880D02*
X682752Y821944D01*
X678688Y706628D02*
Y817880D01*
X748620Y758018D02*
Y800608D01*
X782120Y773738D02*
Y796290D01*
X748620Y800608D02*
Y800690D01*
X739648Y702564D02*
X748620Y711536D01*
Y758018D01*
X682752Y702564D02*
X693166D01*
X678688Y706628D02*
X682752Y702564D01*
X693166D02*
X748620Y758018D01*
X693166Y702564D02*
X739648D01*
X844550Y923798D02*
Y938416D01*
X829818Y909066D02*
X844550Y923798D01*
X852932Y858520D02*
X858643D01*
X818896Y892556D02*
X852932Y858520D01*
X839316Y943650D02*
X844550Y938416D01*
X825890Y943650D02*
X839316D01*
X824992Y909066D02*
X829818D01*
X818896Y892556D02*
Y902970D01*
X858643Y843952D02*
Y858520D01*
X809815Y951092D02*
X817256Y943650D01*
X792112Y951092D02*
X809815D01*
X817256Y943650D02*
X825890D01*
X788048Y947028D02*
X792112Y951092D01*
X818896Y902970D02*
X824992Y909066D01*
X775970Y861568D02*
X784488Y853050D01*
X795370D01*
X775970Y861568D02*
Y911860D01*
X1043940Y928370D02*
Y955040D01*
X1041654Y926084D02*
X1043940Y928370D01*
X1041654Y865886D02*
Y926084D01*
X872236Y884428D02*
X873640Y885832D01*
Y905900D01*
X1161288Y787862D02*
X1170940Y778210D01*
X877484Y912420D02*
X878640D01*
X1159002Y950148D02*
X1170940Y938210D01*
X1161288Y787862D02*
Y883666D01*
X1159002Y950148D02*
Y1042670D01*
X795020Y984250D02*
Y1005840D01*
X783590Y972820D02*
X795020Y984250D01*
X904494Y938650D02*
Y939038D01*
X810514Y925348D02*
X813816Y928650D01*
X846498Y943694D02*
X858520D01*
X819404Y918650D02*
X825890D01*
X813816Y928650D02*
X825890D01*
X844416Y953650D02*
X849122Y948944D01*
X812019Y911265D02*
X819404Y918650D01*
X816886Y923650D02*
X825890D01*
X806704Y913468D02*
X816886Y923650D01*
X808790Y986501D02*
Y1038152D01*
X817372Y958650D02*
X825890D01*
X809892D02*
X817372D01*
X939800Y1007405D02*
Y1009006D01*
X936380Y1003986D02*
X939800Y1007405D01*
X936380Y928724D02*
Y1003986D01*
X935208Y927552D02*
X936380Y928724D01*
X914123Y927552D02*
X935208D01*
X913025Y928650D02*
X914123Y927552D01*
X906390Y928650D02*
X913025D01*
X939800Y1009006D02*
X952636Y1021842D01*
X784606Y816610D02*
X855950D01*
Y804936D02*
Y816610D01*
X671576Y853440D02*
X681482Y843534D01*
X895604Y783520D02*
Y835914D01*
X960532Y791560D02*
X970650D01*
X1089152Y707644D02*
X1099820Y718312D01*
Y753868D02*
Y777590D01*
Y718312D02*
Y753868D01*
X824230Y897890D02*
X838640D01*
X1001283Y1101613D02*
X1003808Y1104138D01*
X1001283Y1101613D02*
X1001283Y1101613D01*
Y1055706D02*
Y1101613D01*
X808790Y1038152D02*
Y1051560D01*
X798014Y958650D02*
X809892D01*
X849590Y798576D02*
X855950Y804936D01*
X849590Y783520D02*
Y798576D01*
X855950Y816610D02*
Y820420D01*
X772668Y804672D02*
X784606Y816610D01*
X772668Y699770D02*
Y804672D01*
X754634Y681736D02*
X772668Y699770D01*
X680212Y681736D02*
X754634D01*
X675132Y686816D02*
X680212Y681736D01*
X675132Y686816D02*
Y837184D01*
X681482Y843534D01*
X682752Y842264D01*
X694944D02*
X697992Y845312D01*
X825890Y953650D02*
X844416D01*
X931418Y820674D02*
X960532Y791560D01*
X970650D02*
X979170D01*
X967232Y788142D02*
X970650Y791560D01*
X967232Y722630D02*
Y788142D01*
Y722630D02*
X996950D01*
X965962Y707644D02*
X1089152D01*
X924194Y749412D02*
X965962Y707644D01*
X924194Y749412D02*
Y887334D01*
X889272Y922256D02*
X924194Y887334D01*
X889272Y922256D02*
Y933178D01*
X867609Y934605D02*
X889272Y933178D01*
X858520Y943694D02*
X867609Y934605D01*
X841542Y948650D02*
X846498Y943694D01*
X825890Y948650D02*
X841542D01*
X1091950Y745998D02*
X1099820Y753868D01*
X1091950Y722630D02*
Y745998D01*
X1058904Y912910D02*
X1108710D01*
X1047694Y901700D02*
X1058904Y912910D01*
X848640Y905900D02*
Y917702D01*
X853640Y876100D02*
Y905900D01*
Y876100D02*
X860044Y869696D01*
X904494Y938650D02*
X906390D01*
X874807Y939038D02*
X904494D01*
X873140Y940704D02*
X874807Y939038D01*
X896112Y943650D02*
X906390D01*
X891580Y948182D02*
X896112Y943650D01*
X887476Y948182D02*
X891580D01*
X884682Y950976D02*
X887476Y948182D01*
X884682Y950976D02*
Y963930D01*
X906272Y985520D01*
Y1043686D01*
X889762Y1060196D02*
X906272Y1043686D01*
X994410Y1092200D02*
Y1101344D01*
X991616Y1104138D02*
X994410Y1101344D01*
X984250Y1104138D02*
X991616D01*
X890016Y953650D02*
X906390D01*
X675188Y945332D02*
X688340Y932180D01*
X675188Y945332D02*
Y1081024D01*
X679506Y1085342D01*
X830072D01*
X838454Y1076960D01*
X976251D01*
X978283Y1074928D01*
Y1055706D02*
Y1074928D01*
Y1055706D02*
X1001283D01*
X925776Y958650D02*
X925830Y958596D01*
X1001283Y1092206D02*
Y1101613D01*
X1003808Y1104138D02*
X1178560D01*
X1189482Y1093216D01*
Y948690D02*
Y1093216D01*
X906390Y958650D02*
X925776D01*
X888640Y986400D02*
Y1002178D01*
X888746Y1002284D01*
X866648Y840232D02*
Y875070D01*
X863640Y878078D02*
X866648Y875070D01*
X863640Y878078D02*
Y905900D01*
X883412Y1010666D02*
X893064Y1020318D01*
X883412Y995680D02*
Y1010666D01*
Y995680D02*
X883640Y995452D01*
Y986400D02*
Y995452D01*
X878640Y986400D02*
Y1024966D01*
X879464Y1025790D01*
X873640Y974718D02*
X873760Y974598D01*
X873640Y974718D02*
Y986400D01*
X863640Y973328D02*
Y986400D01*
X1146048Y1055624D02*
X1159002Y1042670D01*
X1008201Y1055624D02*
X1146048D01*
X1004783Y1052206D02*
X1008201Y1055624D01*
X949075Y1052206D02*
X1004783D01*
X935835Y1065446D02*
X949075Y1052206D01*
X864024Y1065446D02*
X935835D01*
X850646Y1052068D02*
X864024Y1065446D01*
X850646Y1012898D02*
Y1052068D01*
Y1012898D02*
X853640Y1009904D01*
Y986400D02*
Y1009904D01*
X878640Y905900D02*
Y912420D01*
X877484D02*
Y927044D01*
X877654Y927214D01*
X906390Y918650D02*
X947996D01*
X906390Y923650D02*
X916538D01*
X916940Y924052D01*
X950976D01*
X953262Y921766D01*
Y887222D02*
Y921766D01*
X946658Y880618D02*
X953262Y887222D01*
X946658Y836422D02*
Y880618D01*
Y836422D02*
X956056Y827024D01*
X894588Y933704D02*
X894642Y933650D01*
X906390D01*
X783790Y1051560D02*
Y1063190D01*
X788416Y1067816D01*
X812800D01*
X816864Y1063752D01*
Y986652D02*
Y1063752D01*
X808874Y978662D02*
X816864Y986652D01*
X808874Y971296D02*
Y978662D01*
Y971296D02*
X816520Y963650D01*
X825890D01*
X770190Y958850D02*
X798014Y958650D01*
X805374Y963168D02*
X809892Y958650D01*
X805374Y963168D02*
Y983085D01*
X808790Y986501D01*
X808736Y1038098D02*
X808790Y1038152D01*
X906390Y963650D02*
X922502D01*
X930854Y972002D01*
Y1008888D01*
X947872Y1025906D01*
X1070864D01*
X1084580Y1012190D01*
X758698Y1014730D02*
X763270D01*
X754634Y1010666D02*
X758698Y1014730D01*
X688340Y712180D02*
X745120Y768960D01*
Y812176D01*
X778256Y845312D01*
X805180D01*
X813308Y853440D01*
Y884194D01*
X806704Y890798D02*
X813308Y884194D01*
X806704Y890798D02*
Y913468D01*
X987783Y1084557D02*
Y1092206D01*
X985520Y1082294D02*
X987783Y1084557D01*
X966724Y1082294D02*
X985520D01*
X959978Y1089040D02*
X966724Y1082294D01*
X674624Y1089040D02*
X959978D01*
X671576Y1085992D02*
X674624Y1089040D01*
X671576Y853440D02*
Y1085992D01*
X682752Y842264D02*
X694944D01*
X697992Y845312D02*
Y1022528D01*
X688340Y1032180D02*
X697992Y1022528D01*
X825890Y968650D02*
X837438D01*
X895390Y783520D02*
X895604D01*
Y835914D02*
X911860Y852170D01*
X951992D02*
X971550Y871728D01*
Y871822D01*
X893640Y986400D02*
Y997458D01*
X899300Y1003118D01*
Y1032256D01*
X848640Y969746D02*
X864870Y953516D01*
X848640Y969746D02*
Y986400D01*
X868640D02*
Y1029930D01*
X877062Y1038352D01*
X840994Y886714D02*
X843640Y889360D01*
Y905900D01*
X838640Y897890D02*
Y905900D01*
X952636Y1021842D02*
X999744D01*
X1019556Y1002030D01*
X1093978D01*
X1096380Y1004432D01*
Y1038722D01*
X1105408Y1047750D01*
X1121664D01*
X1146048Y1023366D01*
Y776732D02*
Y1023366D01*
Y776732D02*
X1154176Y768604D01*
X1178560D01*
X1180592Y770636D01*
Y808558D01*
X1170940Y818210D02*
X1180592Y808558D01*
X868640Y905900D02*
Y916138D01*
X871982Y919480D01*
X858520Y1021080D02*
Y1043686D01*
X1154176Y1056894D02*
X1163066Y1048004D01*
X1178560D01*
X1180592Y1045972D01*
Y894080D02*
Y1045972D01*
X1175258Y888746D02*
X1180592Y894080D01*
X1166368Y888746D02*
X1175258D01*
X1161288Y883666D02*
X1166368Y888746D01*
X917234Y948650D02*
X918210Y947674D01*
X906390Y948650D02*
X917234D01*
X855556Y938192D02*
X858640Y935108D01*
Y905900D02*
Y935108D01*
X971550Y871822D02*
X983903D01*
X983996Y871728D01*
X1005332D02*
X1013460D01*
X1035106Y893374D01*
Y901700D01*
X883640Y885754D02*
Y905900D01*
X858520Y1003674D02*
Y1021080D01*
Y1003674D02*
X858640Y1003554D01*
Y986400D02*
Y1003554D01*
X763270Y1014730D02*
Y1031040D01*
X783790Y1051560D01*
X883950Y807476D02*
Y820420D01*
Y807476D02*
X895390Y796036D01*
Y783520D02*
Y796036D01*
X735584Y836050D02*
X743870D01*
X732600Y839034D02*
X735584Y836050D01*
X732600Y839034D02*
Y893490D01*
X750970Y911860D01*
D15*
X1015283Y1092206D02*
D03*
X987783D02*
D03*
X994410Y1092200D02*
D03*
X1001283Y1092206D02*
D03*
X1008283D02*
D03*
D16*
X1042670Y824010D02*
D03*
Y842010D02*
D03*
D17*
X1099820Y789590D02*
D03*
X979170Y803560D02*
D03*
X763270Y1002730D02*
D03*
X1099820Y777590D02*
D03*
X979170Y791560D02*
D03*
X763270Y1014730D02*
D03*
D18*
X840986Y1021080D02*
D03*
X1026406Y955040D02*
D03*
X876177Y858520D02*
D03*
X858643D02*
D03*
X1043940Y955040D02*
D03*
X858520Y1021080D02*
D03*
D19*
X843640Y986400D02*
D03*
X888640Y905900D02*
D03*
X838640Y986400D02*
D03*
X893640Y905900D02*
D03*
X873640D02*
D03*
X848640Y986400D02*
D03*
X853640D02*
D03*
X858640D02*
D03*
X863640D02*
D03*
X868640D02*
D03*
X873640D02*
D03*
X878640D02*
D03*
X883640D02*
D03*
X888640D02*
D03*
X893640D02*
D03*
X883640Y905900D02*
D03*
X878640D02*
D03*
X868640D02*
D03*
X863640D02*
D03*
X858640D02*
D03*
X853640D02*
D03*
X848640D02*
D03*
X843640D02*
D03*
X838640D02*
D03*
D20*
X906390Y968650D02*
D03*
X825890Y938650D02*
D03*
X906390Y973650D02*
D03*
X825890D02*
D03*
Y933650D02*
D03*
Y943650D02*
D03*
X906390Y963650D02*
D03*
Y958650D02*
D03*
Y953650D02*
D03*
Y948650D02*
D03*
Y943650D02*
D03*
Y938650D02*
D03*
Y933650D02*
D03*
Y928650D02*
D03*
Y923650D02*
D03*
Y918650D02*
D03*
X825890D02*
D03*
Y923650D02*
D03*
Y928650D02*
D03*
Y948650D02*
D03*
Y953650D02*
D03*
Y958650D02*
D03*
Y963650D02*
D03*
Y968650D02*
D03*
D21*
X758190Y958850D02*
D03*
X770190D02*
D03*
D22*
X795370Y836050D02*
D03*
Y853050D02*
D03*
X743870D02*
D03*
Y836050D02*
D03*
D23*
X1108710Y948910D02*
D03*
Y912910D02*
D03*
D24*
X971550Y850298D02*
D03*
Y871822D02*
D03*
D25*
X872490Y783520D02*
D03*
X849590D02*
D03*
D26*
X966783Y1067706D02*
D03*
X1035783Y1068206D02*
D03*
D27*
X989783Y1067706D02*
D03*
D28*
X1017783Y1068206D02*
D03*
D29*
X1028283Y1092206D02*
D03*
X974783Y1092706D02*
D03*
D30*
X996950Y722630D02*
D03*
X1091950D02*
D03*
D31*
X883950Y820420D02*
D03*
X855950D02*
D03*
D32*
X872490Y717620D02*
D03*
D33*
X895390Y783520D02*
D03*
D34*
X1047694Y901700D02*
D03*
X1035106D02*
D03*
D35*
X808790Y1051560D02*
D03*
X783790D02*
D03*
D45*
X1170940Y1078210D02*
D03*
X688340Y692180D02*
D03*
D46*
X1170940Y1058210D02*
D03*
Y1038210D02*
D03*
Y1018210D02*
D03*
Y998210D02*
D03*
Y978210D02*
D03*
Y958210D02*
D03*
Y938210D02*
D03*
Y918210D02*
D03*
Y898210D02*
D03*
Y878210D02*
D03*
Y858210D02*
D03*
Y838210D02*
D03*
Y818210D02*
D03*
Y798210D02*
D03*
Y778210D02*
D03*
Y758210D02*
D03*
Y738210D02*
D03*
Y718210D02*
D03*
Y698210D02*
D03*
X688340Y1072180D02*
D03*
Y1052180D02*
D03*
Y1032180D02*
D03*
Y1012180D02*
D03*
Y992180D02*
D03*
Y972180D02*
D03*
Y952180D02*
D03*
Y932180D02*
D03*
Y912180D02*
D03*
Y892180D02*
D03*
Y872180D02*
D03*
Y852180D02*
D03*
Y832180D02*
D03*
Y812180D02*
D03*
Y792180D02*
D03*
Y772180D02*
D03*
Y752180D02*
D03*
Y732180D02*
D03*
Y712180D02*
D03*
D47*
X1109980Y1037590D02*
D03*
Y1012190D02*
D03*
X1084580Y1037590D02*
D03*
D48*
X969880Y996950D02*
D03*
X970280Y938330D02*
D03*
X1102360Y828440D02*
D03*
X757120Y796290D02*
D03*
X759660Y701040D02*
D03*
X758190Y750570D02*
D03*
X750970Y911860D02*
D03*
D49*
X970280Y913330D02*
D03*
X1102360Y853440D02*
D03*
D50*
X944880Y996950D02*
D03*
X782120Y796290D02*
D03*
X784660Y701040D02*
D03*
X783190Y750570D02*
D03*
X775970Y911860D02*
D03*
D51*
X1084580Y1012190D02*
D03*
D54*
X925623Y1055299D02*
D03*
X1159002Y911352D02*
D03*
X838200Y934720D02*
D03*
X882904Y922020D02*
D03*
X810768Y836168D02*
D03*
X802894Y871728D02*
D03*
X997366Y1014814D02*
D03*
X1026406Y985774D02*
D03*
X912876Y1004570D02*
D03*
X915230Y996950D02*
D03*
X834644Y1007364D02*
D03*
X832612Y1011174D02*
D03*
X818388Y980440D02*
D03*
X814124Y973650D02*
D03*
X810060Y942848D02*
D03*
X803148Y939292D02*
D03*
X858643Y843952D02*
D03*
X788048Y947028D02*
D03*
X1041654Y865886D02*
D03*
X872236Y884428D02*
D03*
X810514Y925348D02*
D03*
X812019Y911265D02*
D03*
X849122Y948944D02*
D03*
X931418Y820674D02*
D03*
X848640Y917702D02*
D03*
X860044Y869696D02*
D03*
X873140Y940704D02*
D03*
X889762Y1060196D02*
D03*
X984250Y1104138D02*
D03*
X890016Y953650D02*
D03*
X1189482Y948690D02*
D03*
X925830Y958596D02*
D03*
X888746Y1002284D02*
D03*
X866648Y840232D02*
D03*
X893064Y1020318D02*
D03*
X879464Y1025790D02*
D03*
X873760Y974598D02*
D03*
X863640Y973328D02*
D03*
X877654Y927214D02*
D03*
X947996Y918650D02*
D03*
X956056Y827024D02*
D03*
X894588Y933704D02*
D03*
X808736Y1038098D02*
D03*
X754634Y1010666D02*
D03*
X837438Y968650D02*
D03*
X911860Y852170D02*
D03*
X951992D02*
D03*
X899300Y1032256D02*
D03*
X864870Y953516D02*
D03*
X877062Y1038352D02*
D03*
X840994Y886714D02*
D03*
X824230Y897890D02*
D03*
X871982Y919480D02*
D03*
X858520Y1043686D02*
D03*
X1154176Y1056894D02*
D03*
X918210Y947674D02*
D03*
X855556Y938192D02*
D03*
X983996Y871728D02*
D03*
X1005332D02*
D03*
X883640Y885754D02*
D03*
D55*
X795020Y1005840D02*
D03*
X783590Y972820D02*
D03*
M02*
