G04*
G04 #@! TF.GenerationSoftware,Altium Limited,Altium Designer,26.2.0 (7)*
G04*
G04 Layer_Color=128*
%FSLAX44Y44*%
%MOMM*%
G71*
G04*
G04 #@! TF.SameCoordinates,6987A10F-7572-4426-8317-57E1FBD65F4B*
G04*
G04*
G04 #@! TF.FilePolarity,Positive*
G04*
G01*
G75*
%ADD14C,0.1270*%
D14*
X1166490Y1078210D02*
X1175390D01*
X1170940Y1073760D02*
Y1082660D01*
X1166490Y1058210D02*
X1175390D01*
X1170940Y1053760D02*
Y1062660D01*
X1166490Y1038210D02*
X1175390D01*
X1170940Y1033760D02*
Y1042660D01*
X1166490Y1018210D02*
X1175390D01*
X1170940Y1013760D02*
Y1022660D01*
X1166490Y998210D02*
X1175390D01*
X1170940Y993760D02*
Y1002660D01*
X1166490Y978210D02*
X1175390D01*
X1170940Y973760D02*
Y982660D01*
X1166490Y958210D02*
X1175390D01*
X1170940Y953760D02*
Y962660D01*
X1166490Y938210D02*
X1175390D01*
X1170940Y933760D02*
Y942660D01*
X1166490Y918210D02*
X1175390D01*
X1170940Y913760D02*
Y922660D01*
X1166490Y898210D02*
X1175390D01*
X1170940Y893760D02*
Y902660D01*
X1166490Y878210D02*
X1175390D01*
X1170940Y873760D02*
Y882660D01*
X1166490Y858210D02*
X1175390D01*
X1170940Y853760D02*
Y862660D01*
X1166490Y838210D02*
X1175390D01*
X1170940Y833760D02*
Y842660D01*
X1166490Y818210D02*
X1175390D01*
X1170940Y813760D02*
Y822660D01*
X1166490Y798210D02*
X1175390D01*
X1170940Y793760D02*
Y802660D01*
X1166490Y778210D02*
X1175390D01*
X1170940Y773760D02*
Y782660D01*
X1166490Y758210D02*
X1175390D01*
X1170940Y753760D02*
Y762660D01*
X1166490Y738210D02*
X1175390D01*
X1170940Y733760D02*
Y742660D01*
X1166490Y718210D02*
X1175390D01*
X1170940Y713760D02*
Y722660D01*
X1166490Y698210D02*
X1175390D01*
X1170940Y693760D02*
Y702660D01*
X1104880Y1037590D02*
X1115080D01*
X1109980Y1032490D02*
Y1042690D01*
X966380Y996950D02*
X973380D01*
X969880Y993450D02*
Y1000450D01*
X966780Y938330D02*
X973780D01*
X970280Y934830D02*
Y941830D01*
X1098860Y828440D02*
X1105860D01*
X1102360Y824940D02*
Y831940D01*
X683890Y1072180D02*
X692790D01*
X688340Y1067730D02*
Y1076630D01*
X753620Y796290D02*
X760620D01*
X757120Y792790D02*
Y799790D01*
X756160Y701040D02*
X763160D01*
X759660Y697540D02*
Y704540D01*
X754690Y750570D02*
X761690D01*
X758190Y747070D02*
Y754070D01*
X1104880Y1012190D02*
X1115080D01*
X1109980Y1007090D02*
Y1017290D01*
X966780Y913330D02*
X973780D01*
X970280Y909830D02*
Y916830D01*
X941380Y996950D02*
X948380D01*
X944880Y993450D02*
Y1000450D01*
X1098860Y853440D02*
X1105860D01*
X1102360Y849940D02*
Y856940D01*
X683890Y1052180D02*
X692790D01*
X688340Y1047730D02*
Y1056630D01*
X778620Y796290D02*
X785620D01*
X782120Y792790D02*
Y799790D01*
X781160Y701040D02*
X788160D01*
X784660Y697540D02*
Y704540D01*
X779690Y750570D02*
X786690D01*
X783190Y747070D02*
Y754070D01*
X772470Y911860D02*
X779470D01*
X775970Y908360D02*
Y915360D01*
X747470Y911860D02*
X754470D01*
X750970Y908360D02*
Y915360D01*
X1079480Y1012190D02*
X1089680D01*
X1084580Y1007090D02*
Y1017290D01*
X1079480Y1037590D02*
X1089680D01*
X1084580Y1032490D02*
Y1042690D01*
X683890Y1032180D02*
X692790D01*
X688340Y1027730D02*
Y1036630D01*
X683890Y1012180D02*
X692790D01*
X688340Y1007730D02*
Y1016630D01*
X683890Y992180D02*
X692790D01*
X688340Y987730D02*
Y996630D01*
X683890Y972180D02*
X692790D01*
X688340Y967730D02*
Y976630D01*
X683890Y952180D02*
X692790D01*
X688340Y947730D02*
Y956630D01*
X683890Y932180D02*
X692790D01*
X688340Y927730D02*
Y936630D01*
X683890Y912180D02*
X692790D01*
X688340Y907730D02*
Y916630D01*
X683890Y892180D02*
X692790D01*
X688340Y887730D02*
Y896630D01*
X683890Y872180D02*
X692790D01*
X688340Y867730D02*
Y876630D01*
X683890Y852180D02*
X692790D01*
X688340Y847730D02*
Y856630D01*
X683890Y832180D02*
X692790D01*
X688340Y827730D02*
Y836630D01*
X683890Y812180D02*
X692790D01*
X688340Y807730D02*
Y816630D01*
X683890Y792180D02*
X692790D01*
X688340Y787730D02*
Y796630D01*
X683890Y772180D02*
X692790D01*
X688340Y767730D02*
Y776630D01*
X683890Y752180D02*
X692790D01*
X688340Y747730D02*
Y756630D01*
X683890Y732180D02*
X692790D01*
X688340Y727730D02*
Y736630D01*
X683890Y712180D02*
X692790D01*
X688340Y707730D02*
Y716630D01*
X683890Y692180D02*
X692790D01*
X688340Y687730D02*
Y696630D01*
X924623Y1055299D02*
X926623D01*
X925623Y1054299D02*
Y1056299D01*
X1158002Y911352D02*
X1160002D01*
X1159002Y910352D02*
Y912352D01*
X837200Y934720D02*
X839200D01*
X838200Y933720D02*
Y935720D01*
X881904Y922020D02*
X883904D01*
X882904Y921020D02*
Y923020D01*
X809768Y836168D02*
X811768D01*
X810768Y835168D02*
Y837168D01*
X801894Y871728D02*
X803894D01*
X802894Y870728D02*
Y872728D01*
X996366Y1014814D02*
X998366D01*
X997366Y1013814D02*
Y1015814D01*
X1025406Y985774D02*
X1027406D01*
X1026406Y984774D02*
Y986774D01*
X911876Y1004570D02*
X913876D01*
X912876Y1003570D02*
Y1005570D01*
X914230Y996950D02*
X916230D01*
X915230Y995950D02*
Y997950D01*
X833644Y1007364D02*
X835644D01*
X834644Y1006364D02*
Y1008364D01*
X831612Y1011174D02*
X833612D01*
X832612Y1010174D02*
Y1012174D01*
X817388Y980440D02*
X819388D01*
X818388Y979440D02*
Y981440D01*
X813124Y973650D02*
X815124D01*
X814124Y972650D02*
Y974650D01*
X809060Y942848D02*
X811060D01*
X810060Y941848D02*
Y943848D01*
X802148Y939292D02*
X804148D01*
X803148Y938292D02*
Y940292D01*
X857643Y843952D02*
X859643D01*
X858643Y842952D02*
Y844952D01*
X787048Y947028D02*
X789048D01*
X788048Y946028D02*
Y948028D01*
X1040654Y865886D02*
X1042654D01*
X1041654Y864886D02*
Y866886D01*
X871236Y884428D02*
X873236D01*
X872236Y883428D02*
Y885428D01*
X791464Y1005840D02*
X798576D01*
X795020Y1002284D02*
Y1009396D01*
X780034Y972820D02*
X787146D01*
X783590Y969264D02*
Y976376D01*
X809514Y925348D02*
X811514D01*
X810514Y924348D02*
Y926348D01*
X811019Y911265D02*
X813019D01*
X812019Y910265D02*
Y912265D01*
X848122Y948944D02*
X850122D01*
X849122Y947944D02*
Y949944D01*
X930418Y820674D02*
X932418D01*
X931418Y819674D02*
Y821674D01*
X847640Y917702D02*
X849640D01*
X848640Y916702D02*
Y918702D01*
X859044Y869696D02*
X861044D01*
X860044Y868696D02*
Y870696D01*
X872140Y940704D02*
X874140D01*
X873140Y939704D02*
Y941704D01*
X888762Y1060196D02*
X890762D01*
X889762Y1059196D02*
Y1061196D01*
X983250Y1104138D02*
X985250D01*
X984250Y1103138D02*
Y1105138D01*
X889016Y953650D02*
X891016D01*
X890016Y952650D02*
Y954650D01*
X1188482Y948690D02*
X1190482D01*
X1189482Y947690D02*
Y949690D01*
X924830Y958596D02*
X926830D01*
X925830Y957596D02*
Y959596D01*
X887746Y1002284D02*
X889746D01*
X888746Y1001284D02*
Y1003284D01*
X865648Y840232D02*
X867648D01*
X866648Y839232D02*
Y841232D01*
X892064Y1020318D02*
X894064D01*
X893064Y1019318D02*
Y1021318D01*
X878464Y1025790D02*
X880464D01*
X879464Y1024790D02*
Y1026790D01*
X872760Y974598D02*
X874760D01*
X873760Y973598D02*
Y975598D01*
X862640Y973328D02*
X864640D01*
X863640Y972328D02*
Y974328D01*
X876654Y927214D02*
X878654D01*
X877654Y926214D02*
Y928214D01*
X946996Y918650D02*
X948996D01*
X947996Y917650D02*
Y919650D01*
X955056Y827024D02*
X957056D01*
X956056Y826024D02*
Y828024D01*
X893588Y933704D02*
X895588D01*
X894588Y932704D02*
Y934704D01*
X807736Y1038098D02*
X809736D01*
X808736Y1037098D02*
Y1039098D01*
X753634Y1010666D02*
X755634D01*
X754634Y1009666D02*
Y1011666D01*
X836438Y968650D02*
X838438D01*
X837438Y967650D02*
Y969650D01*
X910860Y852170D02*
X912860D01*
X911860Y851170D02*
Y853170D01*
X950992Y852170D02*
X952992D01*
X951992Y851170D02*
Y853170D01*
X898300Y1032256D02*
X900300D01*
X899300Y1031256D02*
Y1033256D01*
X863870Y953516D02*
X865870D01*
X864870Y952516D02*
Y954516D01*
X876062Y1038352D02*
X878062D01*
X877062Y1037352D02*
Y1039352D01*
X839994Y886714D02*
X841994D01*
X840994Y885714D02*
Y887714D01*
X823230Y897890D02*
X825230D01*
X824230Y896890D02*
Y898890D01*
X870982Y919480D02*
X872982D01*
X871982Y918480D02*
Y920480D01*
X857520Y1043686D02*
X859520D01*
X858520Y1042686D02*
Y1044686D01*
X1153176Y1056894D02*
X1155176D01*
X1154176Y1055894D02*
Y1057894D01*
X917210Y947674D02*
X919210D01*
X918210Y946674D02*
Y948674D01*
X854556Y938192D02*
X856556D01*
X855556Y937192D02*
Y939192D01*
X982996Y871728D02*
X984996D01*
X983996Y870728D02*
Y872728D01*
X1004332Y871728D02*
X1006332D01*
X1005332Y870728D02*
Y872728D01*
X882640Y885754D02*
X884640D01*
X883640Y884754D02*
Y886754D01*
M02*
